{
  "accessors": [
    {
      "bufferView": 3,
      "componentType": 5126,
      "count": 152,
      "max": [
        11082.3203125,
        8274.09765625,
        7179.04150390625
      ],
      "min": [
        -15274.126953125,
        829.337158203125,
        -7179.04150390625
      ],
      "type": "VEC3"
    },
    {
      "bufferView": 3,
      "byteOffset": 1824,
      "componentType": 5126,
      "count": 152,
      "max": [
        0.993683934211731,
        1.0,
        0.9999783039093018
      ],
      "min": [
        -0.9965539574623108,
        -0.9998849034309387,
        -0.9999571442604065
      ],
      "type": "VEC3"
    },
    {
      "bufferView": 4,
      "componentType": 5126,
      "count": 152,
      "max": [
        0.9999999403953552,
        1.0,
        1.0,
        1.0
      ],
      "min": [
        -0.9999762773513794,
        -0.9935680031776428,
        -0.9999998211860657,
        -1.0
      ],
      "type": "VEC4"
    },
    {
      "bufferView": 2,
      "componentType": 5126,
      "count": 152,
      "max": [
        0.9981460571289063,
        0.999159574508667
      ],
      "min": [
        0.009217917919158936,
        0.5843380689620972
      ],
      "type": "VEC2"
    },
    {
      "bufferView": 1,
      "componentType": 5125,
      "count": 456,
      "type": "SCALAR"
    },
    {
      "bufferView": 3,
      "byteOffset": 3648,
      "componentType": 5126,
      "count": 447,
      "max": [
        11409.3720703125,
        10765.0263671875,
        7509.1943359375
      ],
      "min": [
        -15573.638671875,
        4.4133100509643555,
        -7509.18212890625
      ],
      "type": "VEC3"
    },
    {
      "bufferView": 3,
      "byteOffset": 9012,
      "componentType": 5126,
      "count": 447,
      "max": [
        1.0,
        1.0,
        0.9897916316986084
      ],
      "min": [
        -1.0,
        -1.0,
        -0.9897916316986084
      ],
      "type": "VEC3"
    },
    {
      "bufferView": 4,
      "byteOffset": 2432,
      "componentType": 5126,
      "count": 447,
      "max": [
        1.0,
        0.9998666644096375,
        1.0,
        1.0
      ],
      "min": [
        -0.9999842047691345,
        -0.9998889565467834,
        -1.0,
        -1.0
      ],
      "type": "VEC4"
    },
    {
      "bufferView": 2,
      "byteOffset": 1216,
      "componentType": 5126,
      "count": 447,
      "max": [
        0.9982587099075317,
        0.9957349300384521
      ],
      "min": [
        0.0,
        0.0
      ],
      "type": "VEC2"
    },
    {
      "bufferView": 1,
      "byteOffset": 1824,
      "componentType": 5125,
      "count": 1212,
      "type": "SCALAR"
    },
    {
      "bufferView": 3,
      "byteOffset": 14376,
      "componentType": 5126,
      "count": 2665,
      "max": [
        9911.3662109375,
        3289.289794921875,
        7472.611328125
      ],
      "min": [
        -12757.2236328125,
        2203.207275390625,
        -7472.6005859375
      ],
      "type": "VEC3"
    },
    {
      "bufferView": 3,
      "byteOffset": 46356,
      "componentType": 5126,
      "count": 2665,
      "max": [
        0.9905872941017151,
        1.0,
        0.9975611567497253
      ],
      "min": [
        -0.9905869364738464,
        -1.0,
        -0.9975612163543701
      ],
      "type": "VEC3"
    },
    {
      "bufferView": 4,
      "byteOffset": 9584,
      "componentType": 5126,
      "count": 2665,
      "max": [
        0.8804721832275391,
        1.0,
        0.999962568283081,
        1.0
      ],
      "min": [
        -0.7397673726081848,
        -0.9999936819076538,
        -0.9999427199363708,
        -1.0
      ],
      "type": "VEC4"
    },
    {
      "bufferView": 2,
      "byteOffset": 4792,
      "componentType": 5126,
      "count": 2665,
      "max": [
        0.9859359264373779,
        0.3387570083141327
      ],
      "min": [
        0.5679779052734375,
        0.20863652229309082
      ],
      "type": "VEC2"
    },
    {
      "bufferView": 1,
      "byteOffset": 6672,
      "componentType": 5125,
      "count": 8352,
      "type": "SCALAR"
    },
    {
      "bufferView": 3,
      "byteOffset": 78336,
      "componentType": 5126,
      "count": 1636,
      "max": [
        10843.2626953125,
        2926.67138671875,
        7570.630859375
      ],
      "min": [
        -13719.84765625,
        2523.6494140625,
        -7570.6201171875
      ],
      "type": "VEC3"
    },
    {
      "bufferView": 3,
      "byteOffset": 97968,
      "componentType": 5126,
      "count": 1636,
      "max": [
        0.9951096177101135,
        1.0,
        0.973953127861023
      ],
      "min": [
        -0.9951091408729553,
        -1.0,
        -0.9739539623260498
      ],
      "type": "VEC3"
    },
    {
      "bufferView": 4,
      "byteOffset": 52224,
      "componentType": 5126,
      "count": 1636,
      "max": [
        0.9983286261558533,
        1.0,
        0.8482673168182373,
        1.0
      ],
      "min": [
        -0.9983286261558533,
        -1.0,
        -0.8482649922370911,
        -1.0
      ],
      "type": "VEC4"
    },
    {
      "bufferView": 2,
      "byteOffset": 26112,
      "componentType": 5126,
      "count": 1636,
      "max": [
        0.8390471935272217,
        0.0705290213227272
      ],
      "min": [
        0.5818032026290894,
        0.0074364542961120605
      ],
      "type": "VEC2"
    },
    {
      "bufferView": 1,
      "byteOffset": 40080,
      "componentType": 5125,
      "count": 6120,
      "type": "SCALAR"
    },
    {
      "bufferView": 5,
      "componentType": 5126,
      "count": 4,
      "max": [
        1.0,
        1.2246467937777962e-20,
        1.4997597480376446e-36,
        0.0,
        1.2246467937777962e-20,
        1.0,
        9.211770520778373e-05,
        0.0,
        0.0,
        9.211010910803452e-05,
        1.0,
        0.0,
        0.4011548161506653,
        0.3669933080673218,
        0.0,
        1.0
      ],
      "min": [
        -9.999999747378752e-05,
        -1.9409562810324132e-06,
        -8.505826940563566e-07,
        0.0,
        -1.538603100925684e-06,
        3.8883936213096604e-05,
        0.0,
        0.0,
        -1.4572244708688231e-06,
        0.0,
        -9.999999747378752e-05,
        0.0,
        0.0,
        0.0,
        -0.9907940626144409,
        1.0
      ],
      "type": "MAT4"
    },
    {
      "bufferView": 0,
      "componentType": 5123,
      "count": 152,
      "type": "VEC4"
    },
    {
      "bufferView": 4,
      "byteOffset": 78400,
      "componentType": 5126,
      "count": 152,
      "max": [
        1.0,
        0.0,
        0.0,
        0.0
      ],
      "min": [
        1.0,
        0.0,
        0.0,
        0.0
      ],
      "type": "VEC4"
    },
    {
      "bufferView": 0,
      "byteOffset": 1216,
      "componentType": 5123,
      "count": 447,
      "type": "VEC4"
    },
    {
      "bufferView": 4,
      "byteOffset": 80832,
      "componentType": 5126,
      "count": 447,
      "max": [
        1.0,
        0.0,
        0.0,
        0.0
      ],
      "min": [
        1.0,
        0.0,
        0.0,
        0.0
      ],
      "type": "VEC4"
    },
    {
      "bufferView": 0,
      "byteOffset": 4792,
      "componentType": 5123,
      "count": 2665,
      "type": "VEC4"
    },
    {
      "bufferView": 4,
      "byteOffset": 87984,
      "componentType": 5126,
      "count": 2665,
      "max": [
        1.0,
        0.0,
        0.0,
        0.0
      ],
      "min": [
        1.0,
        0.0,
        0.0,
        0.0
      ],
      "type": "VEC4"
    },
    {
      "bufferView": 0,
      "byteOffset": 26112,
      "componentType": 5123,
      "count": 1636,
      "type": "VEC4"
    },
    {
      "bufferView": 4,
      "byteOffset": 130624,
      "componentType": 5126,
      "count": 1636,
      "max": [
        1.0,
        0.0,
        0.0,
        0.0
      ],
      "min": [
        1.0,
        0.0,
        0.0,
        0.0
      ],
      "type": "VEC4"
    },
    {
      "bufferView": 6,
      "componentType": 5126,
      "count": 58,
      "max": [
        1.2000000476837158
      ],
      "min": [
        0.03999999910593033
      ],
      "type": "SCALAR"
    },
    {
      "bufferView": 8,
      "componentType": 5126,
      "count": 58,
      "max": [
        0.6021157503128052,
        0.009239701554179192,
        -0.005187538452446461,
        0.9998145699501038
      ],
      "min": [
        -0.5526946187019348,
        -0.0018199621699750423,
        -0.010595053434371948,
        0.7983384728431702
      ],
      "type": "VEC4"
    },
    {
      "bufferView": 6,
      "byteOffset": 232,
      "componentType": 5126,
      "count": 61,
      "max": [
        1.2000000476837158
      ],
      "min": [
        0.0
      ],
      "type": "SCALAR"
    },
    {
      "bufferView": 7,
      "componentType": 5126,
      "count": 61,
      "max": [
        1.0,
        1.060221791267395,
        1.0
      ],
      "min": [
        1.0,
        0.9581148028373718,
        1.0
      ],
      "type": "VEC3"
    },
    {
      "bufferView": 6,
      "byteOffset": 476,
      "componentType": 5126,
      "count": 54,
      "max": [
        1.2000000476837158
      ],
      "min": [
        0.11999999731779099
      ],
      "type": "SCALAR"
    },
    {
      "bufferView": 8,
      "byteOffset": 928,
      "componentType": 5126,
      "count": 54,
      "max": [
        0.6314786672592163,
        0.00942679401487112,
        -0.00483923964202404,
        0.999916136264801
      ],
      "min": [
        -0.5517757534980774,
        -0.0018084541661664844,
        -0.01059240847826004,
        0.775320827960968
      ],
      "type": "VEC4"
    },
    {
      "bufferView": 6,
      "byteOffset": 692,
      "componentType": 5126,
      "count": 47,
      "max": [
        1.2000000476837158
      ],
      "min": [
        0.1599999964237213
      ],
      "type": "SCALAR"
    },
    {
      "bufferView": 7,
      "byteOffset": 732,
      "componentType": 5126,
      "count": 47,
      "max": [
        1.0,
        1.0258841514587402,
        1.0
      ],
      "min": [
        1.0,
        0.9844677448272705,
        1.0
      ],
      "type": "VEC3"
    }
  ],
  "animations": [
    {
      "channels": [
        {
          "sampler": 0,
          "target": {
            "node": 9,
            "path": "rotation"
          }
        },
        {
          "sampler": 1,
          "target": {
            "node": 8,
            "path": "scale"
          }
        }
      ],
      "name": "Armature|Coffin_Close",
      "samplers": [
        {
          "input": 29,
          "interpolation": "LINEAR",
          "output": 30
        },
        {
          "input": 31,
          "interpolation": "LINEAR",
          "output": 32
        }
      ]
    },
    {
      "channels": [
        {
          "sampler": 0,
          "target": {
            "node": 9,
            "path": "rotation"
          }
        },
        {
          "sampler": 1,
          "target": {
            "node": 8,
            "path": "scale"
          }
        }
      ],
      "name": "Armature|Coffin_Open",
      "samplers": [
        {
          "input": 33,
          "interpolation": "LINEAR",
          "output": 34
        },
        {
          "input": 35,
          "interpolation": "LINEAR",
          "output": 36
        }
      ]
    }
  ],
  "asset": {
    "extras": {
      "author": "Mellodona (https://sketchfab.com/mellodona)",
      "license": "CC-BY-4.0 (http://creativecommons.org/licenses/by/4.0/)",
      "source": "https://sketchfab.com/3d-models/coffin-506668927f434293b1c567a6ac8501fb",
      "title": "Coffin"
    },
    "generator": "Sketchfab-12.66.0",
    "version": "2.0"
  },
  "bufferViews": [
    {
      "buffer": 0,
      "byteLength": 39200,
      "byteStride": 8,
      "name": "shortBufferViews",
      "target": 34962
    },
    {
      "buffer": 0,
      "byteLength": 64560,
      "byteOffset": 39200,
      "name": "floatBufferViews",
      "target": 34963
    },
    {
      "buffer": 0,
      "byteLength": 39200,
      "byteOffset": 103760,
      "byteStride": 8,
      "name": "floatBufferViews",
      "target": 34962
    },
    {
      "buffer": 0,
      "byteLength": 117600,
      "byteOffset": 142960,
      "byteStride": 12,
      "name": "floatBufferViews",
      "target": 34962
    },
    {
      "buffer": 0,
      "byteLength": 156800,
      "byteOffset": 260560,
      "byteStride": 16,
      "name": "floatBufferViews",
      "target": 34962
    },
    {
      "buffer": 0,
      "byteLength": 256,
      "byteOffset": 417360,
      "name": "floatBufferViews"
    },
    {
      "buffer": 0,
      "byteLength": 880,
      "byteOffset": 417616,
      "name": "floatBufferViews"
    },
    {
      "buffer": 0,
      "byteLength": 1296,
      "byteOffset": 418496,
      "byteStride": 12,
      "name": "floatBufferViews"
    },
    {
      "buffer": 0,
      "byteLength": 1792,
      "byteOffset": 419792,
      "byteStride": 16,
      "name": "floatBufferViews"
    }
  ],
  "buffers": [
    {
      "byteLength": 421584,
      "uri": "scene.bin"
    }
  ],
  "images": [
    {
      "uri": "textures/Satin_baseColor.png"
    },
    {
      "uri": "textures/Satin_metallicRoughness.png"
    },
    {
      "uri": "textures/Satin_normal.png"
    },
    {
      "uri": "textures/Wood_baseColor.png"
    },
    {
      "uri": "textures/Wood_metallicRoughness.png"
    },
    {
      "uri": "textures/Wood_normal.png"
    },
    {
      "uri": "textures/Metal2_baseColor.png"
    },
    {
      "uri": "textures/Metal2_metallicRoughness.png"
    },
    {
      "uri": "textures/Metal2_normal.png"
    },
    {
      "uri": "textures/Metal_baseColor.png"
    },
    {
      "uri": "textures/Metal_metallicRoughness.png"
    },
    {
      "uri": "textures/Metal_normal.png"
    }
  ],
  "materials": [
    {
      "doubleSided": true,
      "name": "Satin",
      "normalTexture": {
        "index": 2
      },
      "pbrMetallicRoughness": {
        "baseColorTexture": {
          "index": 0
        },
        "metallicRoughnessTexture": {
          "index": 1
        }
      }
    },
    {
      "doubleSided": true,
      "name": "Wood",
      "normalTexture": {
        "index": 5
      },
      "pbrMetallicRoughness": {
        "baseColorTexture": {
          "index": 3
        },
        "metallicRoughnessTexture": {
          "index": 4
        }
      }
    },
    {
      "doubleSided": true,
      "name": "Metal2",
      "normalTexture": {
        "index": 8
      },
      "pbrMetallicRoughness": {
        "baseColorTexture": {
          "index": 6
        },
        "metallicRoughnessTexture": {
          "index": 7
        }
      }
    },
    {
      "doubleSided": true,
      "name": "Metal",
      "normalTexture": {
        "index": 11
      },
      "pbrMetallicRoughness": {
        "baseColorTexture": {
          "index": 9
        },
        "metallicRoughnessTexture": {
          "index": 10
        }
      }
    }
  ],
  "meshes": [
    {
      "name": "lid satin_Satin_0",
      "primitives": [
        {
          "attributes": {
            "JOINTS_0": 21,
            "NORMAL": 1,
            "POSITION": 0,
            "TANGENT": 2,
            "TEXCOORD_0": 3,
            "WEIGHTS_0": 22
          },
          "indices": 4,
          "material": 0,
          "mode": 4
        }
      ]
    },
    {
      "name": "coffin wood_Wood_0",
      "primitives": [
        {
          "attributes": {
            "JOINTS_0": 23,
            "NORMAL": 6,
            "POSITION": 5,
            "TANGENT": 7,
            "TEXCOORD_0": 8,
            "WEIGHTS_0": 24
          },
          "indices": 9,
          "material": 1,
          "mode": 4
        }
      ]
    },
    {
      "name": "holders_Metal2_0",
      "primitives": [
        {
          "attributes": {
            "JOINTS_0": 25,
            "NORMAL": 11,
            "POSITION": 10,
            "TANGENT": 12,
            "TEXCOORD_0": 13,
            "WEIGHTS_0": 26
          },
          "indices": 14,
          "material": 2,
          "mode": 4
        }
      ]
    },
    {
      "name": "bars_Metal_0",
      "primitives": [
        {
          "attributes": {
            "JOINTS_0": 27,
            "NORMAL": 16,
            "POSITION": 15,
            "TANGENT": 17,
            "TEXCOORD_0": 18,
            "WEIGHTS_0": 28
          },
          "indices": 19,
          "material": 3,
          "mode": 4
        }
      ]
    }
  ],
  "nodes": [
    {
      "children": [
        1
      ],
      "matrix": [
        1.0,
        0.0,
        0.0,
        0.0,
        0.0,
        2.220446049250313e-16,
        -1.0,
        0.0,
        0.0,
        1.0,
        2.220446049250313e-16,
        0.0,
        0.0,
        0.0,
        0.0,
        1.0
      ],
      "name": "Sketchfab_model"
    },
    {
      "children": [
        2
      ],
      "matrix": [
        1.0,
        0.0,
        0.0,
        0.0,
        0.0,
        0.0,
        1.0,
        0.0,
        0.0,
        -1.0,
        0.0,
        0.0,
        0.0,
        0.0,
        0.0,
        1.0
      ],
      "name": "d408775da400434f9137483cc3e65309.fbx"
    },
    {
      "children": [
        3
      ],
      "name": "Object_2"
    },
    {
      "children": [
        4,
        18,
        19,
        20,
        21
      ],
      "name": "RootNode"
    },
    {
      "children": [
        5
      ],
      "name": "Armature",
      "rotation": [
        -3.090862321641907e-08,
        0.7071068286895752,
        0.7071067094802856,
        -3.0908616110991716e-08
      ],
      "scale": [
        100.0,
        100.0,
        100.0
      ]
    },
    {
      "children": [
        6,
        11,
        13,
        15,
        17,
        10,
        12,
        14,
        16
      ],
      "name": "Object_5"
    },
    {
      "children": [
        7
      ],
      "name": "_rootJoint"
    },
    {
      "children": [
        8
      ],
      "name": "Root_00",
      "rotation": [
        1.3234889800848443e-23,
        5.218173287504506e-24,
        1.5388167990266062e-16,
        1.0
      ]
    },
    {
      "children": [
        9
      ],
      "name": "Coffin_Bottom_01",
      "rotation": [
        0.7071068286895752,
        -1.0881080531635308e-16,
        -1.0881079208146328e-16,
        0.7071067094802856
      ]
    },
    {
      "name": "Coffin_Top_02",
      "rotation": [
        0.5614835619926453,
        0.008969028480350971,
        -0.005642625968903303,
        0.827420175075531
      ],
      "scale": [
        0.9999999403953552,
        1.0000001192092896,
        1.0000001192092896
      ],
      "translation": [
        -0.399760365486145,
        0.7761675119400024,
        0.7176613211631775
      ]
    },
    {
      "matrix": [
        4.3711384579192547e-10,
        0.0,
        -0.00999999974737875,
        0.0,
        -0.00999999974737875,
        -1.6292066655513876e-09,
        -4.371138457919255e-10,
        0.0,
        -1.6292066655513845e-09,
        0.009999999747378752,
        -7.121488091593973e-17,
        0.0,
        0.0,
        0.0,
        0.0,
        1.0
      ],
      "name": "Object_10"
    },
    {
      "mesh": 0,
      "name": "Object_11",
      "skin": 0
    },
    {
      "matrix": [
        4.3711384579192547e-10,
        0.0,
        -0.00999999974737875,
        0.0,
        -0.00999999974737875,
        -1.6292066655513876e-09,
        -4.371138457919255e-10,
        0.0,
        -1.6292066655513845e-09,
        0.009999999747378752,
        -7.121488091593973e-17,
        0.0,
        0.0,
        0.0,
        0.0,
        1.0
      ],
      "name": "Object_12"
    },
    {
      "mesh": 1,
      "name": "Object_13",
      "skin": 0
    },
    {
      "matrix": [
        4.3711384579192547e-10,
        0.0,
        -0.00999999974737875,
        0.0,
        -0.00999999974737875,
        -1.6292066655513876e-09,
        -4.371138457919255e-10,
        0.0,
        -1.6292066655513845e-09,
        0.009999999747378752,
        -7.121488091593973e-17,
        0.0,
        0.0,
        0.0,
        0.0,
        1.0
      ],
      "name": "Object_14"
    },
    {
      "mesh": 2,
      "name": "Object_15",
      "skin": 0
    },
    {
      "matrix": [
        4.3711384579192547e-10,
        0.0,
        -0.00999999974737875,
        0.0,
        -0.00999999974737875,
        -1.6292066655513876e-09,
        -4.371138457919255e-10,
        0.0,
        -1.6292066655513845e-09,
        0.009999999747378752,
        -7.121488091593973e-17,
        0.0,
        0.0,
        0.0,
        0.0,
        1.0
      ],
      "name": "Object_16"
    },
    {
      "mesh": 3,
      "name": "Object_17",
      "skin": 0
    },
    {
      "name": "lid satin",
      "rotation": [
        0.5000001192092896,
        -0.4999999701976776,
        -0.5000001192092896,
        -0.5
      ],
      "scale": [
        0.009999999776482582,
        0.009999999776482582,
        0.009999999776482582
      ]
    },
    {
      "name": "coffin wood",
      "rotation": [
        0.5000001192092896,
        -0.4999999701976776,
        -0.5000001192092896,
        -0.5
      ],
      "scale": [
        0.009999999776482582,
        0.009999999776482582,
        0.009999999776482582
      ]
    },
    {
      "name": "holders",
      "rotation": [
        0.5000001192092896,
        -0.4999999701976776,
        -0.5000001192092896,
        -0.5
      ],
      "scale": [
        0.009999999776482582,
        0.009999999776482582,
        0.009999999776482582
      ]
    },
    {
      "name": "bars",
      "rotation": [
        0.5000001192092896,
        -0.4999999701976776,
        -0.5000001192092896,
        -0.5
      ],
      "scale": [
        0.009999999776482582,
        0.009999999776482582,
        0.009999999776482582
      ]
    }
  ],
  "samplers": [
    {
      "magFilter": 9729,
      "minFilter": 9987,
      "wrapS": 10497,
      "wrapT": 10497
    }
  ],
  "scene": 0,
  "scenes": [
    {
      "name": "Sketchfab_Scene",
      "nodes": [
        0
      ]
    }
  ],
  "skins": [
    {
      "inverseBindMatrices": 20,
      "joints": [
        6,
        7,
        8,
        9
      ],
      "skeleton": 6
    }
  ],
  "textures": [
    {
      "sampler": 0,
      "source": 0
    },
    {
      "sampler": 0,
      "source": 1
    },
    {
      "sampler": 0,
      "source": 2
    },
    {
      "sampler": 0,
      "source": 3
    },
    {
      "sampler": 0,
      "source": 4
    },
    {
      "sampler": 0,
      "source": 5
    },
    {
      "sampler": 0,
      "source": 6
    },
    {
      "sampler": 0,
      "source": 7
    },
    {
      "sampler": 0,
      "source": 8
    },
    {
      "sampler": 0,
      "source": 9
    },
    {
      "sampler": 0,
      "source": 10
    },
    {
      "sampler": 0,
      "source": 11
    }
  ]
}
