{
  "accessors": [
    {
      "bufferView": 2,
      "componentType": 5126,
      "count": 17509,
      "max": [
        1.0843000411987305,
        2.782210111618042,
        0.6300169825553894
      ],
      "min": [
        0.8395749926567078,
        1.9566600322723389,
        0.014964000321924686
      ],
      "type": "VEC3"
    },
    {
      "bufferView": 2,
      "byteOffset": 210108,
      "componentType": 5126,
      "count": 17509,
      "max": [
        0.9999719858169556,
        1.0,
        0.9998810291290283
      ],
      "min": [
        -1.0,
        -1.0,
        -0.9998759031295776
      ],
      "type": "VEC3"
    },
    {
      "bufferView": 1,
      "componentType": 5126,
      "count": 17509,
      "max": [
        0.9999769926071167,
        0.992887020111084
      ],
      "min": [
        0.00015700000221841037,
        0.00011100000119768083
      ],
      "type": "VEC2"
    },
    {
      "bufferView": 0,
      "componentType": 5125,
      "count": 78822,
      "type": "SCALAR"
    }
  ],
  "asset": {
    "extras": {
      "author": "hotsunny (https://sketchfab.com/hotsunny)",
      "license": "CC-BY-4.0 (http://creativecommons.org/licenses/by/4.0/)",
      "source": "https://sketchfab.com/3d-models/a-wilted-rose-b549f7f1b2394fc8bb87f1aee801be1d",
      "title": "a wilted rose"
    },
    "generator": "Sketchfab-14.25.0",
    "version": "2.0"
  },
  "bufferViews": [
    {
      "buffer": 0,
      "byteLength": 315288,
      "name": "floatBufferViews",
      "target": 34963
    },
    {
      "buffer": 0,
      "byteLength": 140072,
      "byteOffset": 315288,
      "byteStride": 8,
      "name": "floatBufferViews",
      "target": 34962
    },
    {
      "buffer": 0,
      "byteLength": 420216,
      "byteOffset": 455360,
      "byteStride": 12,
      "name": "floatBufferViews",
      "target": 34962
    }
  ],
  "buffers": [
    {
      "byteLength": 875576,
      "uri": "scene.bin"
    }
  ],
  "images": [
    {
      "uri": "textures/flower_low_com_delight_baseColor.png"
    }
  ],
  "materials": [
    {
      "doubleSided": true,
      "name": "flower_low_com_delight",
      "pbrMetallicRoughness": {
        "baseColorTexture": {
          "index": 0
        },
        "metallicFactor": 0.0,
        "roughnessFactor": 0.6019065962867696
      }
    }
  ],
  "meshes": [
    {
      "name": "Object_0",
      "primitives": [
        {
          "attributes": {
            "NORMAL": 1,
            "POSITION": 0,
            "TEXCOORD_0": 2
          },
          "indices": 3,
          "material": 0,
          "mode": 4
        }
      ]
    }
  ],
  "nodes": [
    {
      "children": [
        1
      ],
      "matrix": [
        1.0,
        0.0,
        0.0,
        0.0,
        0.0,
        2.220446049250313e-16,
        -1.0,
        0.0,
        0.0,
        1.0,
        2.220446049250313e-16,
        0.0,
        0.0,
        0.0,
        0.0,
        1.0
      ],
      "name": "Sketchfab_model"
    },
    {
      "children": [
        2
      ],
      "name": "flower_low_com_delight.obj.cleaner.materialmerger.gles"
    },
    {
      "mesh": 0,
      "name": "Object_2"
    }
  ],
  "samplers": [
    {
      "magFilter": 9729,
      "minFilter": 9987,
      "wrapS": 10497,
      "wrapT": 10497
    }
  ],
  "scene": 0,
  "scenes": [
    {
      "name": "Sketchfab_Scene",
      "nodes": [
        0
      ]
    }
  ],
  "textures": [
    {
      "sampler": 0,
      "source": 0
    }
  ]
}
