{
  "accessors": [
    {
      "bufferView": 2,
      "componentType": 5126,
      "count": 402,
      "max": [
        52.011192321777344,
        125.66252136230469,
        99.28885650634766
      ],
      "min": [
        -52.011192321777344,
        -139.31260681152344,
        -7.928318023681641
      ],
      "type": "VEC3"
    },
    {
      "bufferView": 2,
      "byteOffset": 4824,
      "componentType": 5126,
      "count": 402,
      "max": [
        1.0,
        1.0,
        1.0
      ],
      "min": [
        -1.0,
        -1.0,
        -1.0
      ],
      "type": "VEC3"
    },
    {
      "bufferView": 3,
      "componentType": 5126,
      "count": 402,
      "max": [
        1.0,
        1.0,
        0.9999992847442627,
        1.0
      ],
      "min": [
        -1.0,
        -1.0,
        -0.9999991655349731,
        -1.0
      ],
      "type": "VEC4"
    },
    {
      "bufferView": 1,
      "componentType": 5126,
      "count": 402,
      "max": [
        0.99853515625,
        0.9943504333496094
      ],
      "min": [
        0.0040740966796875,
        0.01025390625
      ],
      "type": "VEC2"
    },
    {
      "bufferView": 1,
      "byteOffset": 3216,
      "componentType": 5126,
      "count": 402,
      "max": [
        0.98974609375,
        0.9919357299804688
      ],
      "min": [
        0.00806427001953125,
        0.01708984375
      ],
      "type": "VEC2"
    },
    {
      "bufferView": 1,
      "byteOffset": 6432,
      "componentType": 5126,
      "count": 402,
      "max": [
        0.99853515625,
        0.9943504333496094
      ],
      "min": [
        0.0040740966796875,
        0.01025390625
      ],
      "type": "VEC2"
    },
    {
      "bufferView": 0,
      "componentType": 5125,
      "count": 1665,
      "type": "SCALAR"
    },
    {
      "bufferView": 2,
      "byteOffset": 9648,
      "componentType": 5126,
      "count": 190,
      "max": [
        122.8501968383789,
        40.13079833984375,
        33.428001403808594
      ],
      "min": [
        -114.64700317382813,
        -41.10580062866211,
        -0.9295600056648254
      ],
      "type": "VEC3"
    },
    {
      "bufferView": 2,
      "byteOffset": 11928,
      "componentType": 5126,
      "count": 190,
      "max": [
        0.9718901515007019,
        0.9999463558197021,
        0.9995067119598389
      ],
      "min": [
        -0.877197265625,
        -0.9980794787406921,
        -0.9999005794525146
      ],
      "type": "VEC3"
    },
    {
      "bufferView": 3,
      "byteOffset": 6432,
      "componentType": 5126,
      "count": 190,
      "max": [
        0.7672792077064514,
        0.8094025254249573,
        0.9707053303718567,
        1.0
      ],
      "min": [
        -0.9999998211860657,
        -0.7081787586212158,
        -0.8786681890487671,
        1.0
      ],
      "type": "VEC4"
    },
    {
      "bufferView": 1,
      "byteOffset": 9648,
      "componentType": 5126,
      "count": 190,
      "max": [
        0.990234375,
        0.740966796875
      ],
      "min": [
        0.00974273681640625,
        0.02490234375
      ],
      "type": "VEC2"
    },
    {
      "bufferView": 1,
      "byteOffset": 11168,
      "componentType": 5126,
      "count": 190,
      "max": [
        0.99169921875,
        0.9919357299804688
      ],
      "min": [
        0.00806427001953125,
        0.025390625
      ],
      "type": "VEC2"
    },
    {
      "bufferView": 1,
      "byteOffset": 12688,
      "componentType": 5126,
      "count": 190,
      "max": [
        0.990234375,
        0.740966796875
      ],
      "min": [
        0.00974273681640625,
        0.02490234375
      ],
      "type": "VEC2"
    },
    {
      "bufferView": 0,
      "byteOffset": 6660,
      "componentType": 5125,
      "count": 1002,
      "type": "SCALAR"
    }
  ],
  "asset": {
    "extras": {
      "author": "Veterock (https://sketchfab.com/windofglass)",
      "license": "CC-BY-4.0 (http://creativecommons.org/licenses/by/4.0/)",
      "source": "https://sketchfab.com/3d-models/autopsy-table-c56bae8cd45747fda74e2f0180f494a0",
      "title": "Autopsy table"
    },
    "generator": "Sketchfab-15.49.0",
    "version": "2.0"
  },
  "bufferViews": [
    {
      "buffer": 0,
      "byteLength": 10668,
      "name": "floatBufferViews",
      "target": 34963
    },
    {
      "buffer": 0,
      "byteLength": 14208,
      "byteOffset": 10668,
      "byteStride": 8,
      "name": "floatBufferViews",
      "target": 34962
    },
    {
      "buffer": 0,
      "byteLength": 14208,
      "byteOffset": 24876,
      "byteStride": 12,
      "name": "floatBufferViews",
      "target": 34962
    },
    {
      "buffer": 0,
      "byteLength": 9472,
      "byteOffset": 39084,
      "byteStride": 16,
      "name": "floatBufferViews",
      "target": 34962
    }
  ],
  "buffers": [
    {
      "byteLength": 48556,
      "uri": "scene.bin"
    }
  ],
  "images": [
    {
      "uri": "textures/autopsytable_mat_baseColor.png"
    },
    {
      "uri": "textures/autopsytable_mat_normal.png"
    },
    {
      "uri": "textures/deadman_mat_baseColor.png"
    },
    {
      "uri": "textures/deadman_mat_normal.png"
    }
  ],
  "materials": [
    {
      "doubleSided": true,
      "name": "autopsytable_mat",
      "normalTexture": {
        "index": 1
      },
      "pbrMetallicRoughness": {
        "baseColorTexture": {
          "index": 0
        },
        "metallicFactor": 0.0,
        "roughnessFactor": 0.9717157287525381
      }
    },
    {
      "doubleSided": true,
      "name": "deadman_mat",
      "normalTexture": {
        "index": 3
      },
      "pbrMetallicRoughness": {
        "baseColorTexture": {
          "index": 2
        },
        "metallicFactor": 0.0,
        "roughnessFactor": 0.9762158576999456
      }
    }
  ],
  "meshes": [
    {
      "name": "autopsytable_sm_autopsytable_mat_0",
      "primitives": [
        {
          "attributes": {
            "NORMAL": 1,
            "POSITION": 0,
            "TANGENT": 2,
            "TEXCOORD_0": 3,
            "TEXCOORD_1": 4,
            "TEXCOORD_2": 5
          },
          "indices": 6,
          "material": 0,
          "mode": 4
        }
      ]
    },
    {
      "name": "deadman_sm_deadman_mat_0",
      "primitives": [
        {
          "attributes": {
            "NORMAL": 8,
            "POSITION": 7,
            "TANGENT": 9,
            "TEXCOORD_0": 10,
            "TEXCOORD_1": 11,
            "TEXCOORD_2": 12
          },
          "indices": 13,
          "material": 1,
          "mode": 4
        }
      ]
    }
  ],
  "nodes": [
    {
      "children": [
        1
      ],
      "matrix": [
        1.0,
        0.0,
        0.0,
        0.0,
        0.0,
        2.220446049250313e-16,
        -1.0,
        0.0,
        0.0,
        1.0,
        2.220446049250313e-16,
        0.0,
        0.0,
        0.0,
        0.0,
        1.0
      ],
      "name": "Sketchfab_model"
    },
    {
      "children": [
        2
      ],
      "matrix": [
        1.0,
        0.0,
        0.0,
        0.0,
        0.0,
        0.0,
        1.0,
        0.0,
        0.0,
        -1.0,
        0.0,
        0.0,
        0.0,
        0.0,
        0.0,
        1.0
      ],
      "name": "DeadScene.FBX"
    },
    {
      "children": [
        3,
        5
      ],
      "name": "RootNode"
    },
    {
      "children": [
        4
      ],
      "matrix": [
        0.009999999776482582,
        0.0,
        0.0,
        0.0,
        0.0,
        2.2204459996194763e-18,
        -0.009999999776482582,
        0.0,
        0.0,
        0.009999999776482582,
        2.2204459996194763e-18,
        0.0,
        0.0,
        0.0,
        0.0,
        1.0
      ],
      "name": "autopsytable_sm"
    },
    {
      "mesh": 0,
      "name": "autopsytable_sm_autopsytable_mat_0"
    },
    {
      "children": [
        6
      ],
      "matrix": [
        7.549789646790933e-10,
        -5.551114999048691e-19,
        -0.009999999776482553,
        0.0,
        -0.009999999776482553,
        0.0,
        -7.549789646790933e-10,
        0.0,
        5.551114999048691e-19,
        0.009999999776482582,
        0.0,
        0.0,
        -1.1117459535598755,
        0.0,
        0.0,
        1.0
      ],
      "name": "deadman_sm"
    },
    {
      "mesh": 1,
      "name": "deadman_sm_deadman_mat_0"
    }
  ],
  "samplers": [
    {
      "magFilter": 9729,
      "minFilter": 9987,
      "wrapS": 10497,
      "wrapT": 10497
    }
  ],
  "scene": 0,
  "scenes": [
    {
      "name": "Sketchfab_Scene",
      "nodes": [
        0
      ]
    }
  ],
  "textures": [
    {
      "sampler": 0,
      "source": 0
    },
    {
      "sampler": 0,
      "source": 1
    },
    {
      "sampler": 0,
      "source": 2
    },
    {
      "sampler": 0,
      "source": 3
    }
  ]
}
